<svg xmlns="http://www.w3.org/2000/svg" viewBox="0 0 100 115.47" width="256" height="296">
<defs><clipPath id="hex"><polygon points="50,0 100,28.87 100,86.6 50,115.47 0,86.6 0,28.87"/></clipPath></defs>
<polygon points="50,0 100,28.87 100,86.6 50,115.47 0,86.6 0,28.87" fill="#5e4a35"/>
<g clip-path="url(#hex)">
<circle cx="0.2" cy="65.8" r="44.9" fill="#624e3a" opacity="0.5"/>
<circle cx="48.5" cy="21.0" r="33.7" fill="#523c26" opacity="0.5"/>
<circle cx="45.8" cy="48.4" r="22.9" fill="#5e4a35" opacity="0.5"/>
<circle cx="57.4" cy="19.5" r="40.9" fill="#533d27" opacity="0.5"/>
<circle cx="91.8" cy="65.2" r="0.7" fill="#54422f"/>
<circle cx="8.8" cy="22.1" r="1.8" fill="#4f3f2d"/>
<circle cx="83.5" cy="26.9" r="1.0" fill="#433526"/>
<circle cx="68.3" cy="95.4" r="1.5" fill="#544230"/>
<circle cx="73.1" cy="89.2" r="1.7" fill="#53412f"/>
<circle cx="94.0" cy="25.8" r="1.1" fill="#483929"/>
<circle cx="72.5" cy="68.0" r="0.8" fill="#4a3a2a"/>
<circle cx="18.4" cy="78.2" r="1.7" fill="#493a29"/>
<circle cx="4.7" cy="88.6" r="0.7" fill="#51402e"/>
<circle cx="53.9" cy="93.0" r="1.6" fill="#4d3d2c"/>
<circle cx="85.3" cy="82.9" r="1.8" fill="#423425"/>
<circle cx="64.5" cy="43.9" r="1.3" fill="#52412e"/>
<circle cx="16.2" cy="104.4" r="1.6" fill="#54422f"/>
<circle cx="95.5" cy="39.1" r="1.3" fill="#493929"/>
<circle cx="3.9" cy="89.7" r="1.3" fill="#52412e"/>
<circle cx="12.8" cy="107.4" r="1.2" fill="#473828"/>
<circle cx="92.3" cy="34.7" r="1.4" fill="#54422f"/>
<circle cx="85.2" cy="15.0" r="1.4" fill="#52412e"/>
<circle cx="12.1" cy="10.7" r="1.4" fill="#4b3b2a"/>
<circle cx="80.7" cy="35.6" r="1.0" fill="#483929"/>
<circle cx="49.6" cy="94.2" r="0.8" fill="#51402d"/>
<circle cx="61.3" cy="53.7" r="1.0" fill="#53412f"/>
</g>
<polygon points="50,0 100,28.87 100,86.6 50,115.47 0,86.6 0,28.87" fill="none" stroke="#3d3022" stroke-width="1" opacity="0.5"/>
</svg>
