<svg xmlns="http://www.w3.org/2000/svg" viewBox="0 0 100 115.47" width="256" height="296">
<defs><clipPath id="hex"><polygon points="50,0 100,28.87 100,86.6 50,115.47 0,86.6 0,28.87"/></clipPath></defs>
<polygon points="50,0 100,28.87 100,86.6 50,115.47 0,86.6 0,28.87" fill="#4c3d2e"/>
<g clip-path="url(#hex)">
<circle cx="33.0" cy="17.1" r="32.0" fill="#564739" opacity="0.5"/>
<circle cx="14.7" cy="70.3" r="23.4" fill="#4a3b2c" opacity="0.5"/>
<circle cx="77.0" cy="110.8" r="30.0" fill="#584a3c" opacity="0.5"/>
<circle cx="6.7" cy="105.4" r="24.8" fill="#413121" opacity="0.5"/>
<ellipse cx="25.2" cy="21.6" rx="2.9" ry="1.4" fill="#775f4c" transform="rotate(24.2 50.0 57.0)"/>
<ellipse cx="64.4" cy="99.6" rx="2.4" ry="1.4" fill="#8a674c" transform="rotate(101.9 50.0 57.0)"/>
<ellipse cx="90.4" cy="103.2" rx="3.5" ry="1.8" fill="#7f624b" transform="rotate(49.1 50.0 57.0)"/>
<ellipse cx="30.9" cy="85.6" rx="2.1" ry="1.1" fill="#6f5743" transform="rotate(45.2 50.0 57.0)"/>
<ellipse cx="86.1" cy="62.3" rx="3.8" ry="1.4" fill="#89684d" transform="rotate(24.6 50.0 57.0)"/>
<ellipse cx="79.6" cy="17.8" rx="3.3" ry="1.8" fill="#634d3a" transform="rotate(63.5 50.0 57.0)"/>
<ellipse cx="60.7" cy="89.2" rx="3.8" ry="1.6" fill="#765c46" transform="rotate(128.4 50.0 57.0)"/>
<ellipse cx="22.6" cy="9.9" rx="3.3" ry="2.0" fill="#7f6956" transform="rotate(154.3 50.0 57.0)"/>
<ellipse cx="47.2" cy="92.3" rx="2.7" ry="1.8" fill="#72553d" transform="rotate(38.3 50.0 57.0)"/>
<ellipse cx="17.5" cy="50.8" rx="2.0" ry="1.3" fill="#785335" transform="rotate(172.6 50.0 57.0)"/>
<ellipse cx="38.4" cy="109.9" rx="2.3" ry="1.8" fill="#886245" transform="rotate(124.5 50.0 57.0)"/>
<ellipse cx="14.1" cy="16.7" rx="3.4" ry="1.5" fill="#765e49" transform="rotate(63.0 50.0 57.0)"/>
<ellipse cx="9.7" cy="15.0" rx="4.0" ry="1.5" fill="#5d4e3f" transform="rotate(20.8 50.0 57.0)"/>
<ellipse cx="20.1" cy="34.0" rx="2.2" ry="1.7" fill="#74604e" transform="rotate(38.6 50.0 57.0)"/>
<ellipse cx="76.2" cy="34.8" rx="3.1" ry="2.0" fill="#7f5f46" transform="rotate(140.2 50.0 57.0)"/>
<ellipse cx="42.2" cy="26.3" rx="2.2" ry="1.3" fill="#7b593d" transform="rotate(116.1 50.0 57.0)"/>
</g>
<polygon points="50,0 100,28.87 100,86.6 50,115.47 0,86.6 0,28.87" fill="none" stroke="#31281e" stroke-width="1" opacity="0.5"/>
</svg>
