<svg xmlns="http://www.w3.org/2000/svg" viewBox="0 0 100 100" width="256" height="256">
<defs><clipPath id="cell"><rect x="0" y="0" width="100" height="100"/></clipPath></defs>
<rect x="0" y="0" width="100" height="100" fill="#6e6a63"/>
<g clip-path="url(#cell)"><g transform="translate(0 -7.735)">
<circle cx="23.5" cy="93.6" r="30.9" fill="#78746e" opacity="0.5"/>
<circle cx="88.7" cy="54.2" r="39.7" fill="#656059" opacity="0.5"/>
<circle cx="70.8" cy="12.6" r="34.3" fill="#69655e" opacity="0.5"/>
<circle cx="57.3" cy="29.2" r="20.9" fill="#6e6a63" opacity="0.5"/>
<rect x="-5.0" y="0.1" width="23.7" height="21.0" rx="3" fill="#6e6a63" stroke="#42403b" stroke-width="1.5"/>
<rect x="20.4" y="0.4" width="20.5" height="24.1" rx="3" fill="#6e6a63" stroke="#42403b" stroke-width="1.5"/>
<rect x="50.3" y="-4.2" width="22.2" height="19.6" rx="3" fill="#656159" stroke="#42403b" stroke-width="1.5"/>
<rect x="73.0" y="-4.4" width="21.5" height="19.9" rx="3" fill="#706c65" stroke="#42403b" stroke-width="1.5"/>
<rect x="-4.2" y="20.4" width="22.4" height="19.9" rx="3" fill="#716d66" stroke="#42403b" stroke-width="1.5"/>
<rect x="23.3" y="23.6" width="25.3" height="19.4" rx="3" fill="#67635b" stroke="#42403b" stroke-width="1.5"/>
<rect x="47.2" y="22.6" width="23.9" height="24.5" rx="3" fill="#605b54" stroke="#42403b" stroke-width="1.5"/>
<rect x="71.8" y="24.1" width="27.9" height="22.8" rx="3" fill="#7a7770" stroke="#42403b" stroke-width="1.5"/>
<rect x="-4.0" y="43.8" width="21.4" height="18.3" rx="3" fill="#6b6760" stroke="#42403b" stroke-width="1.5"/>
<rect x="22.0" y="45.3" width="22.9" height="20.7" rx="3" fill="#706c65" stroke="#42403b" stroke-width="1.5"/>
<rect x="50.4" y="44.0" width="23.8" height="24.8" rx="3" fill="#66625a" stroke="#42403b" stroke-width="1.5"/>
<rect x="74.0" y="45.9" width="27.5" height="22.9" rx="3" fill="#726e68" stroke="#42403b" stroke-width="1.5"/>
<rect x="-2.5" y="70.5" width="24.1" height="19.1" rx="3" fill="#7b7771" stroke="#42403b" stroke-width="1.5"/>
<rect x="25.0" y="67.5" width="23.3" height="24.2" rx="3" fill="#76726b" stroke="#42403b" stroke-width="1.5"/>
<rect x="46.1" y="70.3" width="23.4" height="19.1" rx="3" fill="#78746d" stroke="#42403b" stroke-width="1.5"/>
<rect x="73.0" y="69.8" width="26.7" height="24.6" rx="3" fill="#69655e" stroke="#42403b" stroke-width="1.5"/>
<rect x="-3.1" y="91.3" width="27.1" height="21.3" rx="3" fill="#605c54" stroke="#42403b" stroke-width="1.5"/>
<rect x="19.1" y="96.3" width="24.7" height="21.1" rx="3" fill="#6e6a63" stroke="#42403b" stroke-width="1.5"/>
<rect x="50.7" y="94.5" width="21.0" height="22.5" rx="3" fill="#736f68" stroke="#42403b" stroke-width="1.5"/>
<rect x="74.8" y="91.2" width="24.8" height="24.9" rx="3" fill="#76736c" stroke="#42403b" stroke-width="1.5"/>
</g>
</g>
<rect x="0.5" y="0.5" width="99" height="99" fill="none" stroke="#474540" stroke-width="1" opacity="0.5"/>
</svg>
