<svg xmlns="http://www.w3.org/2000/svg" viewBox="0 0 100 100" width="256" height="256">
<defs><clipPath id="cell"><rect x="0" y="0" width="100" height="100"/></clipPath></defs>
<rect x="0" y="0" width="100" height="100" fill="#4a5a2c"/>
<g clip-path="url(#cell)"><g transform="translate(0 -7.735)">
<circle cx="42.4" cy="69.2" r="33.0" fill="#4f5f32" opacity="0.5"/>
<circle cx="10.2" cy="37.8" r="40.7" fill="#3e4f1e" opacity="0.5"/>
<circle cx="86.7" cy="53.7" r="38.5" fill="#455627" opacity="0.5"/>
<circle cx="16.7" cy="83.0" r="43.3" fill="#556439" opacity="0.5"/>
<ellipse cx="47.0" cy="105.2" rx="2.6" ry="1.5" fill="#816b40" transform="rotate(127.0 50.0 57.0)"/>
<ellipse cx="7.9" cy="23.4" rx="3.9" ry="1.4" fill="#71734b" transform="rotate(111.9 50.0 57.0)"/>
<ellipse cx="63.9" cy="85.4" rx="2.1" ry="1.3" fill="#74744d" transform="rotate(93.4 50.0 57.0)"/>
<ellipse cx="94.5" cy="45.8" rx="2.2" ry="1.7" fill="#7c6a3f" transform="rotate(72.9 50.0 57.0)"/>
<ellipse cx="90.3" cy="56.1" rx="3.2" ry="1.8" fill="#80764f" transform="rotate(153.8 50.0 57.0)"/>
<ellipse cx="43.9" cy="43.1" rx="3.2" ry="1.9" fill="#866e44" transform="rotate(4.3 50.0 57.0)"/>
<ellipse cx="15.3" cy="71.2" rx="3.9" ry="1.3" fill="#75744c" transform="rotate(85.6 50.0 57.0)"/>
<ellipse cx="55.8" cy="50.8" rx="2.1" ry="1.0" fill="#7a7f5a" transform="rotate(162.8 50.0 57.0)"/>
<ellipse cx="56.7" cy="98.3" rx="2.3" ry="1.3" fill="#646d44" transform="rotate(99.5 50.0 57.0)"/>
<ellipse cx="25.6" cy="96.8" rx="2.5" ry="1.3" fill="#736235" transform="rotate(135.9 50.0 57.0)"/>
<ellipse cx="14.4" cy="109.5" rx="3.2" ry="1.8" fill="#64683d" transform="rotate(112.7 50.0 57.0)"/>
<ellipse cx="17.0" cy="9.6" rx="3.2" ry="1.5" fill="#897046" transform="rotate(64.4 50.0 57.0)"/>
<ellipse cx="36.1" cy="37.3" rx="3.1" ry="1.5" fill="#6d7953" transform="rotate(58.1 50.0 57.0)"/>
<ellipse cx="85.0" cy="94.2" rx="3.4" ry="1.5" fill="#72744c" transform="rotate(80.0 50.0 57.0)"/>
<ellipse cx="7.8" cy="39.9" rx="3.9" ry="1.3" fill="#64663b" transform="rotate(12.8 50.0 57.0)"/>
<ellipse cx="57.6" cy="52.0" rx="3.1" ry="1.8" fill="#7b805c" transform="rotate(41.3 50.0 57.0)"/>
</g>
</g>
<rect x="0.5" y="0.5" width="99" height="99" fill="none" stroke="#303b1d" stroke-width="1" opacity="0.5"/>
</svg>
