<svg xmlns="http://www.w3.org/2000/svg" viewBox="0 0 100 115.47" width="256" height="296">
<defs><clipPath id="hex"><polygon points="50,0 100,28.87 100,86.6 50,115.47 0,86.6 0,28.87"/></clipPath></defs>
<polygon points="50,0 100,28.87 100,86.6 50,115.47 0,86.6 0,28.87" fill="#3f6b2e"/>
<g clip-path="url(#hex)">
<circle cx="20.7" cy="3.6" r="43.9" fill="#487238" opacity="0.5"/>
<circle cx="3.6" cy="17.0" r="32.1" fill="#426d31" opacity="0.5"/>
<circle cx="1.3" cy="94.8" r="34.9" fill="#4a733a" opacity="0.5"/>
<circle cx="10.0" cy="88.3" r="35.2" fill="#366424" opacity="0.5"/>
<path d="M68.2 84.8 q-2 -3.0 -3 -5.0 M68.2 84.8 q0 -3.5 0 -6.0 M68.2 84.8 q2 -3.0 3 -5.0" stroke="#2f5023" stroke-width="1.2" fill="none" stroke-linecap="round"/>
<path d="M30.8 68.4 q-2 -5.2 -3 -8.6 M30.8 68.4 q0 -6.0 0 -10.3 M30.8 68.4 q2 -5.2 3 -8.6" stroke="#2f5023" stroke-width="1.2" fill="none" stroke-linecap="round"/>
<path d="M50.9 108.6 q-2 -2.5 -3 -4.2 M50.9 108.6 q0 -3.0 0 -5.1 M50.9 108.6 q2 -2.5 3 -4.2" stroke="#2f5023" stroke-width="1.2" fill="none" stroke-linecap="round"/>
<path d="M91.7 94.9 q-2 -2.5 -3 -4.2 M91.7 94.9 q0 -2.9 0 -5.1 M91.7 94.9 q2 -2.5 3 -4.2" stroke="#2f5023" stroke-width="1.2" fill="none" stroke-linecap="round"/>
<path d="M73.2 14.8 q-2 -3.9 -3 -6.5 M73.2 14.8 q0 -4.6 0 -7.8 M73.2 14.8 q2 -3.9 3 -6.5" stroke="#2f5023" stroke-width="1.2" fill="none" stroke-linecap="round"/>
<path d="M69.6 58.0 q-2 -2.7 -3 -4.5 M69.6 58.0 q0 -3.1 0 -5.3 M69.6 58.0 q2 -2.7 3 -4.5" stroke="#2f5023" stroke-width="1.2" fill="none" stroke-linecap="round"/>
<path d="M76.5 26.7 q-2 -4.2 -3 -7.0 M76.5 26.7 q0 -4.9 0 -8.3 M76.5 26.7 q2 -4.2 3 -7.0" stroke="#2f5023" stroke-width="1.2" fill="none" stroke-linecap="round"/>
<path d="M23.3 31.1 q-2 -3.0 -3 -5.0 M23.3 31.1 q0 -3.5 0 -6.0 M23.3 31.1 q2 -3.0 3 -5.0" stroke="#2f5023" stroke-width="1.2" fill="none" stroke-linecap="round"/>
<path d="M79.3 76.1 q-2 -4.1 -3 -6.9 M79.3 76.1 q0 -4.8 0 -8.3 M79.3 76.1 q2 -4.1 3 -6.9" stroke="#2f5023" stroke-width="1.2" fill="none" stroke-linecap="round"/>
<path d="M40.6 102.0 q-2 -4.5 -3 -7.5 M40.6 102.0 q0 -5.2 0 -9.0 M40.6 102.0 q2 -4.5 3 -7.5" stroke="#2f5023" stroke-width="1.2" fill="none" stroke-linecap="round"/>
<path d="M49.8 69.8 q-2 -3.9 -3 -6.5 M49.8 69.8 q0 -4.6 0 -7.8 M49.8 69.8 q2 -3.9 3 -6.5" stroke="#2f5023" stroke-width="1.2" fill="none" stroke-linecap="round"/>
<path d="M81.0 79.1 q-2 -2.4 -3 -4.1 M81.0 79.1 q0 -2.8 0 -4.9 M81.0 79.1 q2 -2.4 3 -4.1" stroke="#2f5023" stroke-width="1.2" fill="none" stroke-linecap="round"/>
<path d="M22.0 43.0 q-2 -3.9 -3 -6.4 M22.0 43.0 q0 -4.5 0 -7.7 M22.0 43.0 q2 -3.9 3 -6.4" stroke="#2f5023" stroke-width="1.2" fill="none" stroke-linecap="round"/>
<path d="M52.5 12.6 q-2 -4.0 -3 -6.6 M52.5 12.6 q0 -4.6 0 -7.9 M52.5 12.6 q2 -4.0 3 -6.6" stroke="#2f5023" stroke-width="1.2" fill="none" stroke-linecap="round"/>
<path d="M37.8 57.1 q-2 -4.6 -3 -7.6 M37.8 57.1 q0 -5.3 0 -9.2 M37.8 57.1 q2 -4.6 3 -7.6" stroke="#2f5023" stroke-width="1.2" fill="none" stroke-linecap="round"/>
<path d="M74.5 101.6 q-2 -4.8 -3 -8.0 M74.5 101.6 q0 -5.6 0 -9.6 M74.5 101.6 q2 -4.8 3 -8.0" stroke="#2f5023" stroke-width="1.2" fill="none" stroke-linecap="round"/>
<path d="M84.1 81.3 q-2 -2.5 -3 -4.2 M84.1 81.3 q0 -3.0 0 -5.1 M84.1 81.3 q2 -2.5 3 -4.2" stroke="#2f5023" stroke-width="1.2" fill="none" stroke-linecap="round"/>
<path d="M56.0 91.3 q-2 -2.9 -3 -4.9 M56.0 91.3 q0 -3.4 0 -5.9 M56.0 91.3 q2 -2.9 3 -4.9" stroke="#2f5023" stroke-width="1.2" fill="none" stroke-linecap="round"/>
<path d="M55.5 39.4 q-2 -4.1 -3 -6.8 M55.5 39.4 q0 -4.8 0 -8.2 M55.5 39.4 q2 -4.1 3 -6.8" stroke="#2f5023" stroke-width="1.2" fill="none" stroke-linecap="round"/>
<path d="M30.8 43.8 q-2 -4.9 -3 -8.2 M30.8 43.8 q0 -5.7 0 -9.8 M30.8 43.8 q2 -4.9 3 -8.2" stroke="#2f5023" stroke-width="1.2" fill="none" stroke-linecap="round"/>
<path d="M32.3 61.3 q-2 -3.6 -3 -6.0 M32.3 61.3 q0 -4.2 0 -7.2 M32.3 61.3 q2 -3.6 3 -6.0" stroke="#2f5023" stroke-width="1.2" fill="none" stroke-linecap="round"/>
<path d="M69.5 70.2 q-2 -3.2 -3 -5.3 M69.5 70.2 q0 -3.7 0 -6.3 M69.5 70.2 q2 -3.2 3 -5.3" stroke="#2f5023" stroke-width="1.2" fill="none" stroke-linecap="round"/>
<path d="M51.1 41.1 q-2 -3.9 -3 -6.5 M51.1 41.1 q0 -4.6 0 -7.8 M51.1 41.1 q2 -3.9 3 -6.5" stroke="#2f5023" stroke-width="1.2" fill="none" stroke-linecap="round"/>
<path d="M17.8 68.3 q-2 -3.3 -3 -5.4 M17.8 68.3 q0 -3.8 0 -6.5 M17.8 68.3 q2 -3.3 3 -5.4" stroke="#2f5023" stroke-width="1.2" fill="none" stroke-linecap="round"/>
<path d="M51.5 58.3 q-2 -4.2 -3 -6.9 M51.5 58.3 q0 -4.8 0 -8.3 M51.5 58.3 q2 -4.2 3 -6.9" stroke="#2f5023" stroke-width="1.2" fill="none" stroke-linecap="round"/>
<path d="M8.9 100.3 q-2 -4.7 -3 -7.8 M8.9 100.3 q0 -5.4 0 -9.3 M8.9 100.3 q2 -4.7 3 -7.8" stroke="#2f5023" stroke-width="1.2" fill="none" stroke-linecap="round"/>
</g>
<polygon points="50,0 100,28.87 100,86.6 50,115.47 0,86.6 0,28.87" fill="none" stroke="#29461e" stroke-width="1" opacity="0.5"/>
</svg>
